<svg version="1.1" xmlns="http://www.w3.org/2000/svg" viewBox="0 0 512 512">
  <circle cx="256" cy="256" r="256" fill="#1d7cf2"/>
  <path d="M0 0 C1.01790619 0.00215515 2.03581238 0.0043103 3.08456421 0.00653076 C17.69363523 0.05620146 32.02575853 0.30709809 46.375 3.3125 C47.34985352 3.51117676 48.32470703 3.70985352 49.32910156 3.91455078 C97.7109774 14.03517194 141.69928269 35.9516877 177.375 70.3125 C178.3640332 71.26068604 178.3640332 71.26068604 179.37304688 72.22802734 C188.86130305 81.37247479 197.6012044 90.66984009 205.375 101.3125 C206.23306152 102.46355017 207.09113451 103.61459177 207.94921875 104.765625 C213.98736829 112.95680614 219.34595521 121.47054105 224.375 130.3125 C224.73948242 130.94430176 225.10396484 131.57610352 225.47949219 132.22705078 C247.08534998 169.97532572 256.85198095 212.74189997 256.6875 255.9375 C256.68534485 256.95540619 256.6831897 257.97331238 256.68096924 259.02206421 C256.63129854 273.63113523 256.38040191 287.96325853 253.375 302.3125 C253.07698486 303.77478027 253.07698486 303.77478027 252.77294922 305.26660156 C242.65232806 353.6484774 220.7358123 397.63678269 186.375 433.3125 C185.74287598 433.97185547 185.11075195 434.63121094 184.45947266 435.31054688 C175.31502521 444.79880305 166.01765991 453.5387044 155.375 461.3125 C154.22394983 462.17056152 153.07290823 463.02863451 151.921875 463.88671875 C143.73224019 469.92427396 135.22961724 475.30707302 126.375 480.3125 C125.66778809 480.7146875 124.96057617 481.116875 124.23193359 481.53125 C101.09654164 494.5566741 75.92537591 503.30551461 49.9375 508.625 C49.21860596 508.77235596 48.49971191 508.91971191 47.7590332 509.0715332 C33.08339502 511.86090125 18.55831162 512.66142619 3.64770508 512.62817383 C0.70811513 512.6250221 -2.2304558 512.64854926 -5.16992188 512.67382812 C-18.54306192 512.71848737 -31.43916711 511.51301542 -44.625 509.3125 C-46.33055054 509.03031616 -46.33055054 509.03031616 -48.07055664 508.74243164 C-91.33802759 500.97044532 -132.38793216 480.98345309 -165.625 452.3125 C-166.37007813 451.67828125 -167.11515625 451.0440625 -167.8828125 450.390625 C-181.38779833 438.57948485 -194.05918743 425.82889772 -204.625 411.3125 C-205.48149066 410.16255169 -206.33826433 409.01281411 -207.1953125 407.86328125 C-213.23534209 399.67315742 -218.61867614 391.16870382 -223.625 382.3125 C-224.0271875 381.60528809 -224.429375 380.89807617 -224.84375 380.16943359 C-237.8691741 357.03404164 -246.61801461 331.86287591 -251.9375 305.875 C-252.08485596 305.15610596 -252.23221191 304.43721191 -252.3840332 303.6965332 C-255.35789088 288.05024391 -255.99800362 272.57681954 -255.9375 256.6875 C-255.93534485 255.66959381 -255.9331897 254.65168762 -255.93096924 253.60293579 C-255.88129854 238.99386477 -255.63040191 224.66174147 -252.625 210.3125 C-252.42632324 209.33764648 -252.22764648 208.36279297 -252.02294922 207.35839844 C-241.90232806 158.9765226 -219.9858123 114.98821731 -185.625 79.3125 C-184.99287598 78.65314453 -184.36075195 77.99378906 -183.70947266 77.31445312 C-174.56502521 67.82619695 -165.26765991 59.0862956 -154.625 51.3125 C-153.47394983 50.45443848 -152.32290823 49.59636549 -151.171875 48.73828125 C-142.98224019 42.70072604 -134.47961724 37.31792698 -125.625 32.3125 C-124.91778809 31.9103125 -124.21057617 31.508125 -123.48193359 31.09375 C-100.34654164 18.0683259 -75.17537591 9.31948539 -49.1875 4 C-48.46860596 3.85264404 -47.74971191 3.70528809 -47.0090332 3.5534668 C-31.36274391 0.57960912 -15.88931954 -0.06050362 0 0 Z M-36.625 132.3125 C-37.30224121 132.49441895 -37.97948242 132.67633789 -38.67724609 132.86376953 C-53.14869004 136.89904134 -67.3688043 143.63027595 -79.625 152.3125 C-81.10806641 153.35083984 -81.10806641 153.35083984 -82.62109375 154.41015625 C-113.52696269 177.06941634 -133.89656686 210.00125537 -140.13671875 247.86328125 C-141.25179986 255.7402142 -141.7774085 263.35338935 -141.625 271.3125 C-142.32625 271.374375 -143.0275 271.43625 -143.75 271.5 C-148.18362004 272.75297958 -151.35809548 275.44230761 -153.9375 279.25 C-155.42365861 283.70847583 -155.75207657 288.22815102 -155.78613281 292.8996582 C-155.79574036 293.97129715 -155.8053479 295.0429361 -155.81524658 296.14704895 C-155.81949646 297.29090561 -155.82374634 298.43476227 -155.828125 299.61328125 C-155.83382507 300.80422897 -155.83952515 301.9951767 -155.84539795 303.22221375 C-155.85482734 305.73789588 -155.86137372 308.25359026 -155.86523438 310.76928711 C-155.87493914 314.60096955 -155.90598279 318.43211518 -155.9375 322.26367188 C-155.94403087 324.7135385 -155.94928101 327.16340894 -155.953125 329.61328125 C-155.9654718 330.75106522 -155.9778186 331.88884918 -155.99053955 333.06111145 C-155.97035275 340.33306768 -155.63391965 347.6133382 -150.87109375 353.46875 C-150.27425781 353.9121875 -149.67742187 354.355625 -149.0625 354.8125 C-148.46308594 355.2765625 -147.86367187 355.740625 -147.24609375 356.21875 C-143.44343645 358.7843983 -139.93819046 358.42482425 -135.5 358.375 C-134.36884766 358.36823242 -134.36884766 358.36823242 -133.21484375 358.36132812 C-131.35152873 358.34953499 -129.48825445 358.33159942 -127.625 358.3125 C-127.67140625 358.869375 -127.7178125 359.42625 -127.765625 360 C-128.05109382 366.03562653 -127.22149787 370.38359483 -123.625 375.3125 C-118.38762001 380.86696563 -113.74442133 384.27620159 -105.97265625 384.6484375 C-104.21104998 384.67222513 -102.449265 384.6849337 -100.6875 384.6875 C-99.80642578 384.71199219 -98.92535156 384.73648437 -98.01757812 384.76171875 C-92.41589049 384.78689487 -88.92219843 384.26198619 -84.625 380.3125 C-80.84116504 374.70645229 -81.19406501 369.22654715 -81.22094727 362.7109375 C-81.21408401 361.54927063 -81.20722076 360.38760376 -81.20014954 359.19073486 C-81.18186906 355.35619843 -81.18572067 351.5220706 -81.19140625 347.6875 C-81.18799839 345.69434479 -81.18458274 343.70118939 -81.18005317 341.70803642 C-81.16602507 335.4452866 -81.16755537 329.18267324 -81.17895508 322.91992188 C-81.1904399 316.46799244 -81.17635105 310.01647851 -81.1495586 303.56460381 C-81.12738091 298.0153607 -81.12076869 292.46624784 -81.12663502 286.91696358 C-81.1300003 283.60685858 -81.12590358 280.29707851 -81.11038399 276.98699951 C-81.09551418 273.29570547 -81.10612271 269.60532778 -81.12329102 265.9140625 C-81.11362305 264.8229718 -81.10395508 263.7318811 -81.09399414 262.60772705 C-81.15330129 256.52104579 -81.55619015 252.94507969 -85.625 248.3125 C-92.03346353 242.68081992 -100.60446651 243.885371 -108.625 244.3125 C-115.43004588 245.52548401 -120.97134112 249.60207431 -124.94921875 255.1640625 C-127.80002143 260.18547635 -128.09887897 264.62595235 -127.625 270.3125 C-129.275 270.3125 -130.925 270.3125 -132.625 270.3125 C-129.59919394 234.28572784 -120.0118576 203.84330612 -94.625 177.3125 C-93.52478516 176.10013672 -93.52478516 176.10013672 -92.40234375 174.86328125 C-69.82248806 150.85098063 -35.84775632 138.45708776 -3.43359375 137.1875 C32.85741279 136.52691285 67.06185928 149.76587306 93.32543945 174.79174805 C119.91399886 200.98230542 130.46482482 233.81252905 133.375 270.3125 C131.725 270.3125 130.075 270.3125 128.375 270.3125 C128.4575 269.178125 128.54 268.04375 128.625 266.875 C128.59375212 260.98998211 126.67442111 255.99030686 122.83203125 251.515625 C116.30845797 245.48467854 109.93413709 244.06185519 101.25 243.9375 C100.56881104 243.92348145 99.88762207 243.90946289 99.18579102 243.89501953 C94.52086361 243.93930143 91.33346285 244.86979612 87.375 247.3125 C83.75214177 251.32701858 82.25400575 253.70805905 82.22782898 259.06156921 C82.22067368 260.06390091 82.21351837 261.0662326 82.20614624 262.09893799 C82.20345734 263.20283875 82.20076843 264.3067395 82.19799805 265.4440918 C82.18814125 267.1833065 82.18814125 267.1833065 82.17808533 268.95765686 C82.15831507 272.80901142 82.14668088 276.66032691 82.13671875 280.51171875 C82.13264322 281.82505503 82.1285677 283.1383913 82.12436867 284.49152565 C82.10531274 290.72629974 82.09108454 296.96106199 82.0827567 303.19585961 C82.07299286 310.3867631 82.04669776 317.57735807 82.00625581 324.76815289 C81.97605644 330.3291934 81.96128408 335.89014569 81.95797569 341.45126659 C81.9556288 344.77100575 81.94473434 348.09034082 81.92151451 351.41000938 C81.89719107 355.11823481 81.89807642 358.82565492 81.9050293 362.53393555 C81.89221924 363.62771515 81.87940918 364.72149475 81.86621094 365.84841919 C81.90983089 372.2334753 82.5812074 376.11408609 86.375 381.3125 C90.7271835 385.20320883 95.64212436 384.79488531 101.1875 384.75 C102.05181641 384.76998047 102.91613281 384.78996094 103.80664062 384.81054688 C110.98161507 384.8051318 116.19140612 383.10230439 121.6171875 378.34765625 C127.26463695 371.52478072 128.7209977 367.13544123 128.375 358.3125 C129.46039063 358.35890625 130.54578125 358.4053125 131.6640625 358.453125 C133.10934731 358.49066487 134.55466211 358.52706264 136 358.5625 C137.06927734 358.61277344 137.06927734 358.61277344 138.16015625 358.6640625 C143.38917731 358.76000784 146.19694903 357.71106385 150.375 354.3125 C157.19014531 347.30804509 156.67324944 339.08033873 156.640625 329.87890625 C156.64253845 328.6870018 156.6444519 327.49509735 156.64642334 326.26707458 C156.64778084 323.7531615 156.64411488 321.2392413 156.63574219 318.7253418 C156.62504632 314.89160293 156.63564776 311.05833365 156.6484375 307.22460938 C156.64711564 304.77604064 156.64455271 302.32747219 156.640625 299.87890625 C156.64669769 298.16919395 156.64669769 298.16919395 156.65289307 296.42494202 C156.5990742 287.22273194 156.09566987 280.03316987 149.375 273.3125 C146.66009275 271.55579531 145.66065953 271.3125 142.375 271.3125 C142.41625 270.178125 142.4575 269.04375 142.5 267.875 C142.38598526 231.44729047 127.17946288 197.5109327 102.375 171.3125 C101.54355469 170.41660156 100.71210938 169.52070313 99.85546875 168.59765625 C77.85841208 145.63440383 44.86318565 129.79604652 12.97607422 128.13549805 C-3.9207103 127.84353241 -20.185508 127.83368608 -36.625 132.3125 Z " fill="white" transform="translate(255.625,-0.3125)"/>
  <path d="M0 0 C14 0 14 0 17.34008789 1.65795898 C20.04593166 7.10586241 19.65050279 12.47752818 19.55859375 18.47265625 C19.55509666 20.44545815 19.55509666 20.44545815 19.55152893 22.45811462 C19.54537573 25.23650016 19.52273637 28.01407559 19.48706055 30.79223633 C19.44174431 34.34879729 19.42703149 37.9046266 19.42332363 41.46144962 C19.41782442 44.861125 19.39444802 48.26055411 19.37109375 51.66015625 C19.36573105 52.93625259 19.36036835 54.21234894 19.35484314 55.52711487 C19.33885574 56.7119194 19.32286835 57.89672394 19.30639648 59.11743164 C19.29043678 60.68032677 19.29043678 60.68032677 19.27415466 62.27479553 C18.996433 65.0354574 18.50828954 66.68837713 17 69 C11.92281793 71.53859104 5.67646212 70 0 70 C0 46.9 0 23.8 0 0 Z " fill="white" transform="translate(384,279)"/>
  <path d="M0 0 C0 23.1 0 46.2 0 70 C-4.95 70 -9.9 70 -15 70 C-18.91783974 66.08216026 -19.12693494 64.70929494 -19.19287109 59.34448242 C-19.20893402 58.15952682 -19.22499695 56.97457123 -19.24154663 55.75370789 C-19.28589963 50.33213768 -19.3275009 44.91071324 -19.35009766 39.48901367 C-19.36343377 36.62638367 -19.39127879 33.76446709 -19.43212891 30.90209961 C-19.49092365 26.78226678 -19.5087568 22.66319922 -19.5234375 18.54296875 C-19.55744156 16.62244942 -19.55744156 16.62244942 -19.59213257 14.66313171 C-19.58042633 9.757204 -19.53655757 6.08315089 -17.34228516 1.65356445 C-14 0 -14 0 0 0 Z " fill="white" transform="translate(128,279)"/>
</svg>
